<svg width="639" height="125" viewBox="0 0 639 125" fill="none" xmlns="http://www.w3.org/2000/svg">
<path d="M-39 2.80029H83.4528C96.5236 2.80029 106.155 4.40091 112.117 7.80223C121.06 12.8042 125.646 22.4079 125.646 36.4133C125.646 42.6157 124.27 47.8177 121.748 52.0194C119.226 56.221 115.786 59.0221 111.658 60.8228C124.27 65.8247 130.691 75.2284 130.691 89.2338C130.691 101.439 127.481 110.042 121.06 115.044C114.639 120.046 103.862 122.447 88.4976 122.447H-39V2.80029ZM3.19347 31.8115V47.6177H77.9493C81.389 47.6177 83.9114 47.0174 85.7459 45.817C87.5804 44.6165 88.4976 42.6157 88.4976 39.6146C88.4976 36.8135 87.5804 34.8127 85.7459 33.6122C83.9114 32.4118 81.389 31.6115 77.9493 31.6115H3.19347V31.8115ZM3.19347 74.428V93.4354H76.1148C79.7838 93.4354 82.7648 92.6351 85.058 91.0345C87.3511 89.4339 88.4976 87.233 88.4976 84.4319C88.4976 80.4304 87.5804 77.8294 85.5166 76.4288C83.4528 75.0283 80.4717 74.428 76.1148 74.428H3.19347Z" stroke="#B8B8B8" stroke-miterlimit="10"/>
<path d="M135.047 122.447V2.80029H282.495V31.8115H177.011V48.418H277.679V77.2292H177.24V93.6355H282.724V122.647H135.047V122.447Z" stroke="#B8B8B8" stroke-miterlimit="10"/>
<path d="M378.579 95.2365C398.758 95.2365 410.453 94.8363 413.663 94.2361C416.874 93.6358 418.479 91.435 418.479 87.8336C418.479 83.832 416.415 81.031 412.517 79.8305C407.472 78.2299 396.006 77.4296 378.349 77.4296C343.265 77.4296 321.251 75.2287 311.849 70.827C302.676 66.4253 297.861 55.221 297.861 37.6142C297.861 21.2078 303.823 10.8038 315.976 6.20201C325.149 2.8007 345.558 1 377.203 1C411.6 1 432.926 3.00077 441.64 6.80224C452.188 11.6041 457.462 23.6088 457.462 42.6161H415.269C415.269 36.2136 413.663 32.6122 410.453 31.4118C407.243 30.2113 396.236 29.8111 377.432 29.8111C358.858 29.8111 348.08 30.2113 344.87 30.8115C341.659 31.4118 340.054 33.8127 340.054 37.6142C340.054 41.6157 342.347 44.4168 346.934 45.6173C351.52 46.8177 362.068 47.618 378.12 47.618C413.205 47.618 435.677 50.019 445.538 54.6207C455.398 59.4226 460.443 70.4269 460.443 87.8336C460.443 103.64 454.71 113.844 443.474 118.445C433.843 122.247 411.829 124.048 377.891 124.048C341.43 124.048 318.957 122.047 310.473 117.845C300.842 113.243 295.797 101.239 295.797 81.8313H337.99C337.99 88.2337 339.825 92.2353 343.265 93.2357C346.704 94.2361 358.858 95.2365 378.579 95.2365Z" stroke="#B8B8B8" stroke-miterlimit="10"/>
<path d="M474.66 33.8123V2.80029H637.701V33.8123H577.392V122.447H535.428V33.8123H474.66Z" stroke="#B8B8B8" stroke-miterlimit="10"/>
</svg>
